<svg width="176" height="88" viewBox="0 0 176 88" fill="none" xmlns="http://www.w3.org/2000/svg">
<path d="M16.36 36.9499H27.9506C31.0113 36.9499 33.4573 37.7527 35.2887 39.3583C37.1201 40.964 38.0358 43.2093 38.0358 46.0944C38.0358 49.0547 37.1201 51.3503 35.2887 52.981C33.4824 54.5866 31.0364 55.3894 27.9506 55.3894H23.0208V63.2544H16.36V36.9499ZM26.8969 49.7823C28.2265 49.7823 29.2677 49.5063 30.0203 48.9544C30.798 48.4025 31.1869 47.4491 31.1869 46.0944C31.1869 44.7397 30.8106 43.8114 30.0579 43.3097C29.3053 42.8079 28.2516 42.557 26.8969 42.557H23.0208V49.7823H26.8969ZM50.8961 63.8189C47.3588 63.8189 44.574 62.991 42.5419 61.3352C40.5349 59.6794 39.5314 57.3337 39.5314 54.2981C39.5314 51.3126 40.422 48.9544 42.2032 47.2233C44.0096 45.4923 46.6061 44.6268 49.993 44.6268C52.1505 44.6268 53.9945 45.0407 55.5248 45.8686C57.0803 46.6714 58.2468 47.7878 59.0246 49.2178C59.8274 50.6227 60.2288 52.2158 60.2288 53.997V56.4431H45.8159C46.0667 57.4466 46.6939 58.1741 47.6974 58.6257C48.701 59.0773 50.0682 59.3031 51.7993 59.3031C52.9784 59.3031 54.1826 59.2027 55.4119 59.002C56.6663 58.8013 57.7451 58.5254 58.6482 58.1741V62.5394C57.72 62.9157 56.5534 63.2168 55.1485 63.4426C53.7687 63.6934 52.3512 63.8189 50.8961 63.8189ZM53.9819 52.3036C53.8816 51.3252 53.4802 50.56 52.7777 50.0081C52.0753 49.4561 51.1094 49.1802 49.8801 49.1802C48.6759 49.1802 47.7225 49.4687 47.0201 50.0457C46.3176 50.5976 45.9162 51.3503 45.8159 52.3036H53.9819ZM70.6756 63.8189C68.4428 63.8189 66.7494 63.2042 65.5954 61.9749C64.4664 60.7205 63.902 59.0146 63.902 56.857V49.7823H61.343V45.1912H63.902V39.7723H70.5251V45.1912H74.6646V49.7823H70.5251V55.9539C70.5251 56.9323 70.7007 57.6347 71.052 58.0612C71.4283 58.4877 72.0806 58.701 73.0088 58.701C73.8367 58.701 74.6646 58.4752 75.4925 58.0236V62.9533C74.8402 63.2544 74.1377 63.4676 73.3851 63.5931C72.6576 63.7436 71.7544 63.8189 70.6756 63.8189ZM77.3644 36.9499H83.7617L91.3633 53.2444L99.0025 36.9499H105.362V63.2544H99.153V50.0457L92.8686 63.2544H89.858L83.6112 50.0457V63.2544H77.3644V36.9499ZM115.56 63.8189C113.302 63.8189 111.471 63.2795 110.066 62.2007C108.686 61.0969 107.996 59.5665 107.996 57.6097C107.996 55.5776 108.661 54.0221 109.99 52.9433C111.345 51.8395 113.277 51.2876 115.786 51.2876C116.764 51.2876 117.742 51.4004 118.721 51.6262C119.699 51.8269 120.54 52.1029 121.242 52.4541V52.0778C121.242 50.1461 119.662 49.1802 116.501 49.1802C114.293 49.1802 112.273 49.6067 110.442 50.4597V45.9062C111.245 45.5299 112.298 45.2289 113.603 45.0031C114.908 44.7522 116.262 44.6268 117.667 44.6268C121.029 44.6268 123.563 45.3041 125.269 46.6589C127 47.9885 127.865 49.8576 127.865 52.266V63.2544H121.656V61.7115C120.979 62.3638 120.126 62.8781 119.097 63.2544C118.069 63.6307 116.889 63.8189 115.56 63.8189ZM117.517 59.7547C118.294 59.7547 119.022 59.6041 119.699 59.3031C120.377 58.9769 120.891 58.563 121.242 58.0612V56.4807C120.163 55.7532 118.934 55.3894 117.554 55.3894C116.676 55.3894 115.999 55.5776 115.522 55.9539C115.046 56.3302 114.807 56.8821 114.807 57.6097C114.807 58.287 115.033 58.8139 115.485 59.1902C115.961 59.5665 116.639 59.7547 117.517 59.7547ZM131.056 35.4447H137.679V63.2544H131.056V35.4447ZM141.051 35.4447H147.675V63.2544H141.051V35.4447Z" fill="white"/>
<path d="M151.643 49.3576C152.837 49.6782 153.806 50.552 154.247 51.7074L155.292 54.4416C155.619 55.2954 156.363 55.9198 157.261 56.0925L158.206 56.2742C159.463 56.516 160.136 57.8971 159.551 59.036V59.036C159.16 59.7975 158.313 60.2084 157.473 60.0435L155.195 59.5961C153.963 59.3541 152.925 58.5279 152.414 57.3811L151.349 54.9943C150.88 53.9422 149.965 53.1548 148.855 52.8471L146.342 52.1509C145.654 51.9603 145.116 51.4235 144.924 50.736V50.736C144.501 49.217 145.89 47.8136 147.413 48.2224L151.643 49.3576Z" fill="white"/>
<path d="M43.725 33.4523L81.6923 19.1346C83.2042 18.5644 84.8704 18.5552 86.3885 19.1085L125.743 33.4522" stroke="white" stroke-width="3.85965" stroke-linecap="round"/>
</svg>
